<svg xmlns="http://www.w3.org/2000/svg" xmlns:xlink="http://www.w3.org/1999/xlink" contentStyleType="text/css" data-diagram-type="DESCRIPTION" height="942px" preserveAspectRatio="none" style="width:1147px;height:942px;background:#FFFFFF;" version="1.1" viewBox="0 0 1147 942" width="1147px" zoomAndPan="magnify"><defs/><g><!--cluster benchmark--><g class="cluster" data-entity="benchmark" data-source-line="3" data-uid="ent0003" id="cluster_benchmark"><path d="M8.5,116 L97.499,116 A3.75,3.75 0 0 1 99.999,118.5 L106.999,138.2969 L376.5,138.2969 A2.5,2.5 0 0 1 379,140.7969 L379,403.5 A2.5,2.5 0 0 1 376.5,406 L8.5,406 A2.5,2.5 0 0 1 6,403.5 L6,118.5 A2.5,2.5 0 0 1 8.5,116" fill="none" style="stroke:#000000;stroke-width:1.5;"/><line style="stroke:#000000;stroke-width:1.5;" x1="6" x2="106.999" y1="138.2969" y2="138.2969"/><text fill="#000000" font-family="sans-serif" font-size="14" font-weight="bold" lengthAdjust="spacing" textLength="87.999" x="10" y="130.9951">benchmark</text></g><!--cluster dbms--><g class="cluster" data-entity="dbms" data-source-line="9" data-uid="ent0007" id="cluster_dbms"><path d="M405.5,260 L449.4639,260 A3.75,3.75 0 0 1 451.9639,262.5 L458.9639,282.2969 L898.5,282.2969 A2.5,2.5 0 0 1 901,284.7969 L901,932.5 A2.5,2.5 0 0 1 898.5,935 L405.5,935 A2.5,2.5 0 0 1 403,932.5 L403,262.5 A2.5,2.5 0 0 1 405.5,260" fill="none" style="stroke:#000000;stroke-width:1.5;"/><line style="stroke:#000000;stroke-width:1.5;" x1="403" x2="458.9639" y1="282.2969" y2="282.2969"/><text fill="#000000" font-family="sans-serif" font-size="14" font-weight="bold" lengthAdjust="spacing" textLength="42.9639" x="407" y="274.9951">dbms</text></g><!--cluster dbms/index--><g class="cluster" data-entity="dbms.index" data-source-line="10" data-uid="ent0008" id="cluster_dbms.index"><path d="M429.5,303 L521.8896,303 A3.75,3.75 0 0 1 524.3896,305.5 L531.3896,325.2969 L874.5,325.2969 A2.5,2.5 0 0 1 877,327.7969 L877,639.5 A2.5,2.5 0 0 1 874.5,642 L429.5,642 A2.5,2.5 0 0 1 427,639.5 L427,305.5 A2.5,2.5 0 0 1 429.5,303" fill="none" style="stroke:#000000;stroke-width:1.5;"/><line style="stroke:#000000;stroke-width:1.5;" x1="427" x2="531.3896" y1="325.2969" y2="325.2969"/><text fill="#000000" font-family="sans-serif" font-size="14" font-weight="bold" lengthAdjust="spacing" textLength="91.3896" x="431" y="317.9951">dbms/index</text></g><!--cluster dbms/buffer manager--><g class="cluster" data-entity="dbms.buffer manager" data-source-line="18" data-uid="ent0014" id="cluster_dbms.buffer manager"><path d="M635.5,691 L807.8906,691 A3.75,3.75 0 0 1 810.3906,693.5 L817.3906,713.2969 L817.5,713.2969 A2.5,2.5 0 0 1 820,715.7969 L820,908.5 A2.5,2.5 0 0 1 817.5,911 L635.5,911 A2.5,2.5 0 0 1 633,908.5 L633,693.5 A2.5,2.5 0 0 1 635.5,691" fill="none" style="stroke:#000000;stroke-width:1.5;"/><line style="stroke:#000000;stroke-width:1.5;" x1="633" x2="817.3906" y1="713.2969" y2="713.2969"/><text fill="#000000" font-family="sans-serif" font-size="14" font-weight="bold" lengthAdjust="spacing" textLength="171.3906" x="637" y="705.9951">dbms/buffer manager</text></g><!--entity runner--><g class="entity" data-entity="runner" data-source-line="4" data-uid="ent0004" id="entity_runner"><rect fill="#F1F1F1" height="46.2969" rx="2.5" ry="2.5" style="stroke:#181818;stroke-width:0.5;" width="174.9072" x="183.5" y="151"/><rect fill="#F1F1F1" height="10" style="stroke:#181818;stroke-width:0.5;" width="15" x="338.4072" y="156"/><rect fill="#F1F1F1" height="2" style="stroke:#181818;stroke-width:0.5;" width="4" x="336.4072" y="158"/><rect fill="#F1F1F1" height="2" style="stroke:#181818;stroke-width:0.5;" width="4" x="336.4072" y="162"/><text fill="#000000" font-family="sans-serif" font-size="14" lengthAdjust="spacing" textLength="134.9072" x="198.5" y="183.9951">Benchmark Runner</text></g><!--entity ds--><g class="entity" data-entity="ds" data-source-line="5" data-uid="ent0005" id="entity_ds"><rect fill="#F1F1F1" height="46.2969" rx="2.5" ry="2.5" style="stroke:#181818;stroke-width:0.5;" width="170.3682" x="22" y="344"/><rect fill="#F1F1F1" height="10" style="stroke:#181818;stroke-width:0.5;" width="15" x="172.3682" y="349"/><rect fill="#F1F1F1" height="2" style="stroke:#181818;stroke-width:0.5;" width="4" x="170.3682" y="351"/><rect fill="#F1F1F1" height="2" style="stroke:#181818;stroke-width:0.5;" width="4" x="170.3682" y="355"/><text fill="#000000" font-family="sans-serif" font-size="14" lengthAdjust="spacing" textLength="130.3682" x="37" y="376.9951">Dataset Generator</text></g><!--entity plot--><g class="entity" data-entity="plot" data-source-line="6" data-uid="ent0006" id="entity_plot"><rect fill="#F1F1F1" height="46.2969" rx="2.5" ry="2.5" style="stroke:#181818;stroke-width:0.5;" width="134.582" x="227.5" y="344"/><rect fill="#F1F1F1" height="10" style="stroke:#181818;stroke-width:0.5;" width="15" x="342.082" y="349"/><rect fill="#F1F1F1" height="2" style="stroke:#181818;stroke-width:0.5;" width="4" x="340.082" y="351"/><rect fill="#F1F1F1" height="2" style="stroke:#181818;stroke-width:0.5;" width="4" x="340.082" y="355"/><text fill="#000000" font-family="sans-serif" font-size="14" lengthAdjust="spacing" textLength="94.582" x="242.5" y="376.9951">Result Plotter</text></g><!--entity idx_iface--><g class="entity" data-entity="idx_iface" data-source-line="11" data-uid="ent0009" id="entity_idx_iface"><ellipse cx="557" cy="367" fill="#F1F1F1" rx="8" ry="8" style="stroke:#181818;stroke-width:0.5;"/><text fill="#000000" font-family="sans-serif" font-size="14" lengthAdjust="spacing" textLength="105.916" x="504.042" y="396.9951">Index Interface</text></g><!--entity btree--><g class="entity" data-entity="btree" data-source-line="12" data-uid="ent0010" id="entity_btree"><rect fill="#F1F1F1" height="46.2969" rx="2.5" ry="2.5" style="stroke:#181818;stroke-width:0.5;" width="86.1904" x="443" y="457"/><rect fill="#F1F1F1" height="10" style="stroke:#181818;stroke-width:0.5;" width="15" x="509.1904" y="462"/><rect fill="#F1F1F1" height="2" style="stroke:#181818;stroke-width:0.5;" width="4" x="507.1904" y="464"/><rect fill="#F1F1F1" height="2" style="stroke:#181818;stroke-width:0.5;" width="4" x="507.1904" y="468"/><text fill="#000000" font-family="sans-serif" font-size="14" lengthAdjust="spacing" textLength="46.1904" x="458" y="489.9951">B-Tree</text></g><!--entity bptree--><g class="entity" data-entity="bptree" data-source-line="13" data-uid="ent0011" id="entity_bptree"><rect fill="#F1F1F1" height="46.2969" rx="2.5" ry="2.5" style="stroke:#181818;stroke-width:0.5;" width="92.8691" x="564.5" y="457"/><rect fill="#F1F1F1" height="10" style="stroke:#181818;stroke-width:0.5;" width="15" x="637.3691" y="462"/><rect fill="#F1F1F1" height="2" style="stroke:#181818;stroke-width:0.5;" width="4" x="635.3691" y="464"/><rect fill="#F1F1F1" height="2" style="stroke:#181818;stroke-width:0.5;" width="4" x="635.3691" y="468"/><text fill="#000000" font-family="sans-serif" font-size="14" lengthAdjust="spacing" textLength="52.8691" x="579.5" y="489.9951">B+Tree</text></g><!--entity lsm--><g class="entity" data-entity="lsm" data-source-line="14" data-uid="ent0012" id="entity_lsm"><rect fill="#F1F1F1" height="46.2969" rx="2.5" ry="2.5" style="stroke:#181818;stroke-width:0.5;" width="168.0576" x="693" y="457"/><rect fill="#F1F1F1" height="10" style="stroke:#181818;stroke-width:0.5;" width="15" x="841.0576" y="462"/><rect fill="#F1F1F1" height="2" style="stroke:#181818;stroke-width:0.5;" width="4" x="839.0576" y="464"/><rect fill="#F1F1F1" height="2" style="stroke:#181818;stroke-width:0.5;" width="4" x="839.0576" y="468"/><text fill="#000000" font-family="sans-serif" font-size="14" lengthAdjust="spacing" textLength="128.0576" x="708" y="489.9951">LSM-Tree (Pebble)</text></g><!--entity shared--><g class="entity" data-entity="shared" data-source-line="15" data-uid="ent0013" id="entity_shared"><rect fill="#F1F1F1" height="46.2969" rx="2.5" ry="2.5" style="stroke:#181818;stroke-width:0.5;" width="178.0107" x="566" y="580"/><rect fill="#F1F1F1" height="10" style="stroke:#181818;stroke-width:0.5;" width="15" x="724.0107" y="585"/><rect fill="#F1F1F1" height="2" style="stroke:#181818;stroke-width:0.5;" width="4" x="722.0107" y="587"/><rect fill="#F1F1F1" height="2" style="stroke:#181818;stroke-width:0.5;" width="4" x="722.0107" y="591"/><text fill="#000000" font-family="sans-serif" font-size="14" lengthAdjust="spacing" textLength="138.0107" x="581" y="612.9951">Shared Tree Engine</text></g><!--entity pager--><g class="entity" data-entity="pager" data-source-line="19" data-uid="ent0015" id="entity_pager"><rect fill="#F1F1F1" height="46.2969" rx="2.5" ry="2.5" style="stroke:#181818;stroke-width:0.5;" width="80.2773" x="650" y="726"/><rect fill="#F1F1F1" height="10" style="stroke:#181818;stroke-width:0.5;" width="15" x="710.2773" y="731"/><rect fill="#F1F1F1" height="2" style="stroke:#181818;stroke-width:0.5;" width="4" x="708.2773" y="733"/><rect fill="#F1F1F1" height="2" style="stroke:#181818;stroke-width:0.5;" width="4" x="708.2773" y="737"/><text fill="#000000" font-family="sans-serif" font-size="14" lengthAdjust="spacing" textLength="40.2773" x="665" y="758.9951">Pager</text></g><!--entity cache--><g class="entity" data-entity="cache" data-source-line="20" data-uid="ent0016" id="entity_cache"><rect fill="#F1F1F1" height="46.2969" rx="2.5" ry="2.5" style="stroke:#181818;stroke-width:0.5;" width="115.7627" x="650" y="849"/><rect fill="#F1F1F1" height="10" style="stroke:#181818;stroke-width:0.5;" width="15" x="745.7627" y="854"/><rect fill="#F1F1F1" height="2" style="stroke:#181818;stroke-width:0.5;" width="4" x="743.7627" y="856"/><rect fill="#F1F1F1" height="2" style="stroke:#181818;stroke-width:0.5;" width="4" x="743.7627" y="860"/><text fill="#000000" font-family="sans-serif" font-size="14" lengthAdjust="spacing" textLength="75.7627" x="665" y="881.9951">LRU Cache</text></g><!--entity main--><g class="entity" data-entity="main" data-source-line="1" data-uid="ent0002" id="entity_main"><rect fill="#F1F1F1" height="46.2969" rx="2.5" ry="2.5" style="stroke:#181818;stroke-width:0.5;" width="156.0947" x="193" y="7"/><rect fill="#F1F1F1" height="10" style="stroke:#181818;stroke-width:0.5;" width="15" x="329.0947" y="12"/><rect fill="#F1F1F1" height="2" style="stroke:#181818;stroke-width:0.5;" width="4" x="327.0947" y="14"/><rect fill="#F1F1F1" height="2" style="stroke:#181818;stroke-width:0.5;" width="4" x="327.0947" y="18"/><text fill="#000000" font-family="sans-serif" font-size="14" lengthAdjust="spacing" textLength="116.0947" x="208" y="39.9951">Main Application</text></g><!--entity disk--><g class="entity" data-entity="disk" data-source-line="24" data-uid="ent0017" id="entity_disk"><path d="M917,859.5 C917,849.5 1023.7695,849.5 1023.7695,849.5 C1023.7695,849.5 1130.5391,849.5 1130.5391,859.5 L1130.5391,884.7969 C1130.5391,894.7969 1023.7695,894.7969 1023.7695,894.7969 C1023.7695,894.7969 917,894.7969 917,884.7969 L917,859.5" fill="#F1F1F1" style="stroke:#181818;stroke-width:0.5;"/><path d="M917,859.5 C917,869.5 1023.7695,869.5 1023.7695,869.5 C1023.7695,869.5 1130.5391,869.5 1130.5391,859.5" fill="none" style="stroke:#181818;stroke-width:0.5;"/><text fill="#000000" font-family="sans-serif" font-size="14" lengthAdjust="spacing" textLength="193.5391" x="927" y="886.4951">Disk Storage (.bt, .bpt, .sst)</text></g><!--link main to runner--><g class="link" data-entity-1="main" data-entity-2="runner" data-source-line="27" data-uid="lnk18" id="link_main_runner"><path d="M271,53.19 C271,79.86 271,118.36 271,144.97" fill="none" id="main-to-runner" style="stroke:#181818;stroke-width:1;"/><polygon fill="#181818" points="271,150.97,275,141.97,271,145.97,267,141.97,271,150.97" style="stroke:#181818;stroke-width:1;"/><text fill="#000000" font-family="sans-serif" font-size="13" lengthAdjust="spacing" textLength="126.9976" x="272" y="96.0669">Configures &amp; Starts</text></g><!--link runner to ds--><g class="link" data-entity-1="runner" data-entity-2="ds" data-source-line="28" data-uid="lnk19" id="link_runner_ds"><path d="M215.53,197.1 C200.73,204.92 185.63,214.86 174,227 C141.29,261.14 123.5671,308.5339 114.6371,338.2439" fill="none" id="runner-to-ds" style="stroke:#181818;stroke-width:1;"/><polygon fill="#181818" points="112.91,343.99,119.3314,336.5223,114.3493,339.2016,111.67,334.2195,112.91,343.99" style="stroke:#181818;stroke-width:1;"/><text fill="#000000" font-family="sans-serif" font-size="13" lengthAdjust="spacing" textLength="95.3354" x="175" y="240.0669">Requests Data</text></g><!--link runner to idx_iface--><g class="link" data-entity-1="runner" data-entity-2="idx_iface" data-source-line="29" data-uid="lnk20" id="link_runner_idx_iface"><path d="M323.25,197.08 C341.66,205.59 362.19,215.94 380,227 C449.05,269.85 518.2953,330.7996 543.5053,353.6596" fill="none" id="runner-to-idx_iface" style="stroke:#181818;stroke-width:1;stroke-dasharray:7,7;"/><polygon fill="#181818" points="547.95,357.69,543.9698,348.6812,544.246,354.3313,538.5959,354.6075,547.95,357.69" style="stroke:#181818;stroke-width:1;"/><text fill="#000000" font-family="sans-serif" font-size="13" lengthAdjust="spacing" textLength="113.4897" x="407" y="240.0669">Executes Queries</text></g><!--link runner to plot--><g class="link" data-entity-1="runner" data-entity-2="plot" data-source-line="30" data-uid="lnk21" id="link_runner_plot"><path d="M273.8,197.28 C278.42,234.09 286.8508,301.197 291.4708,337.907" fill="none" id="runner-to-plot" style="stroke:#181818;stroke-width:1;"/><polygon fill="#181818" points="292.22,343.86,295.0649,334.431,291.5957,338.8991,287.1275,335.4299,292.22,343.86" style="stroke:#181818;stroke-width:1;"/><text fill="#000000" font-family="sans-serif" font-size="13" lengthAdjust="spacing" textLength="90.3398" x="281" y="240.0669">Saves Results</text></g><!--reverse link idx_iface to btree--><g class="link" data-entity-1="idx_iface" data-entity-2="btree" data-source-line="32" data-uid="lnk22" id="link_idx_iface_btree"><path d="M541.9644,391.5056 C531.1344,408.4456 515.93,432.2 500.1,456.95" fill="none" id="idx_iface-backto-btree" style="stroke:#181818;stroke-width:1;stroke-dasharray:7,7;"/><polygon fill="none" points="551.66,376.34,536.9092,388.2737,547.0196,394.7375,551.66,376.34" style="stroke:#181818;stroke-width:1;"/></g><!--reverse link idx_iface to bptree--><g class="link" data-entity-1="idx_iface" data-entity-2="bptree" data-source-line="33" data-uid="lnk23" id="link_idx_iface_bptree"><path d="M568.9335,392.5266 C577.1735,409.4666 588.23,432.2 600.27,456.95" fill="none" id="idx_iface-backto-bptree" style="stroke:#181818;stroke-width:1;stroke-dasharray:7,7;"/><polygon fill="none" points="561.06,376.34,563.538,395.1512,574.3291,389.9021,561.06,376.34" style="stroke:#181818;stroke-width:1;"/></g><!--reverse link idx_iface to lsm--><g class="link" data-entity-1="idx_iface" data-entity-2="lsm" data-source-line="34" data-uid="lnk24" id="link_idx_iface_lsm"><path d="M582.2421,380.7348 C610.3021,394.8848 680.2,430.16 733.3,456.95" fill="none" id="idx_iface-backto-lsm" style="stroke:#181818;stroke-width:1;stroke-dasharray:7,7;"/><polygon fill="none" points="566.17,372.63,579.5405,386.0922,584.9437,375.3774,566.17,372.63" style="stroke:#181818;stroke-width:1;"/></g><!--link btree to shared--><g class="link" data-entity-1="btree" data-entity-2="shared" data-source-line="36" data-uid="lnk25" id="link_btree_shared"><path d="M482.81,503.26 C481.95,518.09 483.45,537.13 494,550 C511.88,571.8 533.2064,582.9731 560.1164,590.4031" fill="none" id="btree-to-shared" style="stroke:#181818;stroke-width:1;"/><polygon fill="#181818" points="565.9,592,558.2892,585.7489,561.0803,590.6693,556.16,593.4604,565.9,592" style="stroke:#181818;stroke-width:1;"/><text fill="#000000" font-family="sans-serif" font-size="13" lengthAdjust="spacing" textLength="127.1499" x="495" y="546.0669">Uses NodeAccessor</text></g><!--link bptree to shared--><g class="link" data-entity-1="bptree" data-entity-2="shared" data-source-line="37" data-uid="lnk26" id="link_bptree_shared"><path d="M619.07,503.19 C627.01,525.03 637.0104,552.5209 644.9304,574.3109" fill="none" id="bptree-to-shared" style="stroke:#181818;stroke-width:1;"/><polygon fill="#181818" points="646.98,579.95,647.6649,570.125,645.272,575.2508,640.1462,572.8578,646.98,579.95" style="stroke:#181818;stroke-width:1;"/><text fill="#000000" font-family="sans-serif" font-size="13" lengthAdjust="spacing" textLength="127.1499" x="637" y="546.0669">Uses NodeAccessor</text></g><!--link shared to pager--><g class="link" data-entity-1="shared" data-entity-2="pager" data-source-line="39" data-uid="lnk27" id="link_shared_pager"><path d="M660.39,626.18 C666.95,653.17 676.5443,692.6194 683.1243,719.7194" fill="none" id="shared-to-pager" style="stroke:#181818;stroke-width:1;"/><polygon fill="#181818" points="684.54,725.55,686.3035,715.8603,683.3603,720.6912,678.5294,717.7479,684.54,725.55" style="stroke:#181818;stroke-width:1;"/><text fill="#000000" font-family="sans-serif" font-size="13" lengthAdjust="spacing" textLength="115.4956" x="673" y="671.0669">Read/Write Pages</text></g><!--link lsm to disk--><g class="link" data-entity-1="lsm" data-entity-2="disk" data-source-line="40" data-uid="lnk28" id="link_lsm_disk"><path d="M795.1,503.15 C835.69,553.61 935.31,682.08 998,802 C1005.95,817.2 1010.8026,829.6979 1015.4326,843.5879" fill="none" id="lsm-to-disk" style="stroke:#181818;stroke-width:1;"/><polygon fill="#181818" points="1017.33,849.28,1018.2787,839.4769,1015.7489,844.5366,1010.6892,842.0068,1017.33,849.28" style="stroke:#181818;stroke-width:1;"/><text fill="#000000" font-family="sans-serif" font-size="13" lengthAdjust="spacing" textLength="134.9702" x="920" y="671.0669">External I/O (Pebble)</text></g><!--link pager to cache--><g class="link" data-entity-1="pager" data-entity-2="cache" data-source-line="42" data-uid="lnk29" id="link_pager_cache"><path d="M691.64,772.14 C692.79,785.71 694.57,803.42 697,819 C698.54,828.85 699.4358,833.7812 701.4658,842.9712" fill="none" id="pager-to-cache" style="stroke:#181818;stroke-width:1;"/><polygon fill="#181818" points="702.76,848.83,704.7246,839.1791,701.6815,843.9477,696.9129,840.9046,702.76,848.83" style="stroke:#181818;stroke-width:1;"/><text fill="#000000" font-family="sans-serif" font-size="13" lengthAdjust="spacing" textLength="115.4131" x="698" y="815.0669">Manages Memory</text></g><!--link pager to disk--><g class="link" data-entity-1="pager" data-entity-2="disk" data-source-line="43" data-uid="lnk30" id="link_pager_disk"><path d="M730.01,766.23 C776.66,785.12 849.06,814.33 862,819 C891.59,829.67 918.8775,838.6564 947.3375,847.6264" fill="none" id="pager-to-disk" style="stroke:#181818;stroke-width:1;"/><polygon fill="#181818" points="953.06,849.43,945.6787,842.9096,948.2913,847.927,943.2738,850.5396,953.06,849.43" style="stroke:#181818;stroke-width:1;"/><text fill="#000000" font-family="sans-serif" font-size="13" lengthAdjust="spacing" textLength="130.3872" x="863" y="815.0669">syscall (Read/Write)</text></g><!--SRC=[XLDDZzCm4BtxLunwWAwWwHsXbPPbXIfHA2chFIB7dhPM7ITu7DGLyDyPsyacMuh88PhCl7dpyIQggTl6eGimMqlZuAPjhL4ocCRDG1BKx1IYbUeezmYp2fqwrD8VP_1J03zgp7ytnA3id4EVydqopw7lPP240JuW1sLeCbRJEQv4wco0ZMr2w0bRjiNlIKkwgcdevfbpQPp6qn2AZt7CifEA0QiOWzNWIDH6dxwP-FMKC9rkyTLZnbM1hOkOLoEc_HVeutQTg62-mQgoU9NmbkfBuEr1UjIGy7TkRrncf-HE2RoAloUlkjqEFOldsEUdAvXmRt8ixZHQ5tijx-5MgaEkggBL5-MocaMiM4QMqz0HjYnZx61ULE4r5Bm0VXE5F9zcY10leKIRZeiEfYKHhmiMY-l-JE0Dt3PkP_QTHu8NJ2bz8D478quJOqhytY45WdX6GxGehaS16NHtGjK5fldIeJVuZ2NU44EsyWV7yusH46Fssrz5qQjyxcmlUQDu8k4JVLQ72zmJytzgDDueXKID5pd_VoZHnrAlKPiqjDJB1sy2GXIE11VDAudBZ_FoAJjfORNy_7HQyJVPzqCdzHYuJaT1iCQwyOyJG4z4ZwIajJ0VArxz0G00]--></g></svg>